<svg width="1434" height="1113" viewBox="0 0 1434 1113" fill="none" xmlns="http://www.w3.org/2000/svg">
<path d="M0.443359 1089.08C137.057 1089.74 277.026 1064.52 412.824 1084.05C526.178 1100.36 625.43 1109.48 740.439 1095.69C793.443 1089.33 843.387 1087.88 896.867 1087.2C951.504 1086.51 1003.56 1076.28 1057.24 1069.71C1196.19 1052.7 1325.05 1090.55 1462.73 1089.19" stroke="#548BCE" stroke-opacity="0.7" stroke-width="0.5" stroke-miterlimit="10"/>
<path d="M0.443359 1034.66C146.511 1029.63 316.587 966.844 454.992 1022.4C509.039 1044.08 562.27 1077.48 624.456 1083.54C675.147 1088.49 716.34 1073.58 759.754 1055.84C806.706 1036.66 842.593 1032.81 894.555 1026.4C947.378 1019.9 985.804 994.525 1032.1 975.929C1175.24 918.353 1320.02 1023.75 1462.71 1034.66" stroke="#548BCE" stroke-opacity="0.7" stroke-width="0.5" stroke-miterlimit="10"/>
<path d="M0.443359 980.235C99.8772 973.151 194.8 948.835 291.898 932.028C378.591 917.027 430.575 914.424 498.996 960.559C548.327 993.819 599.291 1050.17 666.396 1063.15C718.539 1073.21 750.278 1044.38 779.909 1016.63C791.539 1005.76 802.262 993.606 816.839 984.751C841.777 969.839 864.131 972.354 891.993 965.27C945.972 951.261 968.847 910.811 1005.85 880.597C1062.34 834.551 1118.02 847.213 1186.96 874.841C1278.19 911.431 1360.48 963.871 1462.62 980.235" stroke="#548BCE" stroke-opacity="0.7" stroke-width="0.5" stroke-miterlimit="10"/>
<path d="M0.443359 925.846C107.676 917.629 208.787 886.707 312.619 865.844C405.819 847.142 457.213 843.742 523.865 900.662C569.728 939.837 618.742 1013.26 689.974 1028.88C746.9 1041.28 770.727 1003.47 791.267 970.759C799.632 957.441 806.411 941.909 819.492 930.699C842.616 910.863 862.566 916.672 891.199 907.87C947.4 890.55 961.093 838.446 990.384 802.052C1037.99 742.918 1102.13 762.718 1170.14 794.667C1265.74 839.58 1351.39 906.684 1462.59 925.828" stroke="#548BCE" stroke-opacity="0.7" stroke-width="0.5" stroke-miterlimit="10"/>
<path d="M0.443359 871.48C107.789 863.812 208.651 831.739 312.347 810.54C352.384 802.357 406.227 787.516 447.896 798.142C478.138 805.899 502.51 827.895 522.301 845.871C566.781 886.251 612.984 962.599 685.054 978.326C748.532 992.175 766.669 947.794 783.4 911.204C790.473 895.743 795.302 876.882 808.542 863.511C830.102 841.78 848.986 846.934 879.048 838.84C932.188 824.513 964.789 785.533 1005.3 757.692C1022.24 746.057 1042.46 732.101 1064.59 726.735C1107.91 716.215 1152.84 738.122 1189.27 754.469C1279.71 795.114 1358.81 853.097 1462.66 871.356" stroke="#548BCE" stroke-opacity="0.7" stroke-width="0.5" stroke-miterlimit="10"/>
<path d="M0.443359 817.075C106.724 809.3 206.203 776.82 308.765 755.319C347.895 747.102 402.169 731.641 442.886 743.011C472.698 751.352 495.754 774.677 514.14 793.219C554.607 833.953 597.636 916.199 668.505 932.227C739.373 948.254 749.53 876.617 758.077 840.134C769.843 789.872 775.397 751.299 847.672 744.853C913.281 738.991 979.434 735.094 1045.18 729.905C1115.46 724.362 1177.15 718.376 1243.71 742.568C1317.41 769.417 1380.21 807.848 1462.71 817.057" stroke="#548BCE" stroke-opacity="0.7" stroke-width="0.5" stroke-miterlimit="10"/>
<path d="M0.443359 762.685C105.477 754.716 203.392 721.81 304.435 699.974C342.477 691.756 397.227 675.551 436.764 687.807C466.055 696.892 487.547 721.775 504.346 740.937C537.15 778.253 582.107 875.925 649.189 887.365C726.882 900.63 724.433 803.295 728.537 766.476C733.411 722.643 729.92 636.252 811.784 645.285C906.502 655.751 998.795 684.867 1090.23 705.499C1128.54 714.16 1168.15 723.493 1207.59 728.523C1240.56 732.738 1273.09 730.967 1305.82 736.775C1359.99 746.392 1405.94 762.597 1462.77 762.721" stroke="#548BCE" stroke-opacity="0.7" stroke-width="0.5" stroke-miterlimit="10"/>
<path d="M0.443359 708.275C104.729 700.27 201.419 666.993 301.488 644.926C338.895 636.673 394.007 620.132 432.978 632.706C462.065 642.181 482.446 668.126 498.111 687.696C527.992 724.887 569.819 828.032 636.176 839.419C718.176 853.588 707.113 734.274 708.836 699.048C710.854 657.376 699.156 545.412 786.393 559.138C903.464 577.556 1015.05 634.973 1122.49 672.961C1198.09 699.704 1265.31 722.443 1349.19 716.245C1387.08 713.447 1424.78 710.241 1462.8 708.328" stroke="#548BCE" stroke-opacity="0.7" stroke-width="0.5" stroke-miterlimit="10"/>
<path d="M0.443359 653.888C105.159 646.007 202.372 612.18 302.848 589.883C340.845 581.453 395.617 564.912 435.019 578.053C463.516 587.563 483.217 612.145 498.497 631.537C527.402 668.18 565.217 766.454 630.327 777.841C709.811 791.744 704.551 677.141 708.065 641.473C712.214 599.429 705.798 493.309 790.473 503.971C905.663 518.511 1015.75 587.032 1116.93 627.73C1187.21 655.924 1261.12 685.589 1342.14 671.722C1384.13 664.532 1418.48 654.012 1462.68 653.835" stroke="#548BCE" stroke-opacity="0.7" stroke-width="0.5" stroke-miterlimit="10"/>
<path d="M0.443359 599.501C107.608 591.142 207.223 556.27 310.058 533.229C391.196 515.059 451.772 503.264 499.88 564.807C526.858 599.306 552.771 676.381 612.553 687.822C684.669 701.689 702.488 615.21 715.116 578.514C729.194 537.621 745.517 456.863 821.011 468.817C916.749 483.977 1000.93 556.253 1078.14 597.889C1146.29 634.638 1206.37 657.785 1289.46 638.339C1349.06 624.384 1399.14 602.175 1462.75 599.483" stroke="#548BCE" stroke-opacity="0.7" stroke-width="0.5" stroke-miterlimit="10"/>
<path d="M0.443359 545.099C110.737 536.014 213.344 499.956 319.171 476.03C388.045 460.427 456.375 440.715 501.104 493.74C527.47 524.998 536.04 576.323 589.769 587.604C653.247 600.94 695.233 546.428 724.207 512.938C753.679 478.81 795.347 424.475 859.211 439.493C932.755 456.761 982.018 533.729 1029.4 575.224C1048.94 592.315 1076.1 616.436 1105.21 624.388C1142.57 634.571 1187.57 620.687 1222.37 610.592C1302.95 587.232 1376.06 553.335 1462.68 545.064" stroke="#548BCE" stroke-opacity="0.7" stroke-width="0.5" stroke-miterlimit="10"/>
<path d="M0.443359 490.688C113.208 481.142 218.196 444.057 326.381 419.334C381.652 406.706 463.493 380.477 502.464 427.02C525.702 454.772 524.546 488.085 571.973 497.595C629.602 509.142 688.342 473.916 731.235 449.972C770.682 427.941 836.948 386.375 889.726 404.315C950.053 424.824 965.491 504.52 990.497 545.377C1001.08 562.644 1016.73 587.492 1040.6 596.506C1077.35 610.391 1136.22 587.545 1169.6 577.202C1266.97 547.095 1357.76 503.156 1462.59 490.741" stroke="#548BCE" stroke-opacity="0.7" stroke-width="0.5" stroke-miterlimit="10"/>
<path d="M0.443359 436.323C113.049 427.574 216.768 388.718 324.25 363.339C381.085 349.915 456.737 326.839 500.469 369.804C525.407 394.35 531.324 424.829 575.147 433.33C629.556 443.956 693.035 411.423 737.106 391.64C777.256 373.647 851.05 334.472 899.928 350.694C959.96 370.636 965.083 454.228 984.512 494.802C993.218 512.991 1005.62 536.935 1029.67 546.41C1066.15 560.808 1128.83 536.988 1161.55 526.645C1261.3 495.05 1354.09 446.949 1462.57 436.323" stroke="#548BCE" stroke-opacity="0.7" stroke-width="0.5" stroke-miterlimit="10"/>
<path d="M0.443359 381.918C105.772 372.585 198.2 329.531 296.478 301.39C368.843 280.651 423.683 273.939 490.675 304.028C535.654 324.236 577.006 356.486 630.531 362.472C688.863 369.06 734 341.84 778.503 316.992C814.187 297.051 876.486 256.335 924.956 271.512C986.62 290.887 999.565 382.803 1021.67 423.696C1031.42 441.761 1045.25 467.688 1069.73 477.287C1103.94 490.676 1163.63 471.195 1194.72 461.224C1284.88 432.357 1362.59 386.841 1462.5 381.847" stroke="#548BCE" stroke-opacity="0.7" stroke-width="0.5" stroke-miterlimit="10"/>
<path d="M0.443359 327.512C95.5471 316.036 171.698 268.112 256.623 236.127C336.197 206.18 397.68 212.75 479.295 232.408C554.584 250.561 631.189 278.349 710.536 283.91C770.251 288.089 801.514 263.95 840.054 232.55C868.891 209.102 915.117 167.5 964.063 181.527C988.729 188.611 1006.14 215.176 1017.04 231.381C1042.78 269.458 1059.85 310.439 1084.1 348.871C1095.96 367.697 1113.58 397.503 1140.1 407.669C1171.59 419.747 1221.72 406.606 1250.46 396.175C1324.41 369.379 1376.56 327.796 1462.52 327.388" stroke="#548BCE" stroke-opacity="0.7" stroke-width="0.5" stroke-miterlimit="10"/>
<path d="M0.443359 273.106C87.9297 260.107 148.483 207.738 221.846 172.247C302.055 133.461 380.858 149.613 468.64 163.215C571.202 179.154 675.646 203.7 780.566 208.517C841.777 211.333 863.201 189.55 893.467 152.252C915.593 124.996 948.262 82.5446 999.702 97.4566C1027.79 105.586 1051.53 137.73 1065.45 155.528C1099.29 198.617 1124.91 245.39 1157.4 289.081C1193.97 338.191 1244.02 386.629 1320.02 345.594C1374.63 316.107 1387.1 274.576 1462.62 272.982" stroke="#548BCE" stroke-opacity="0.7" stroke-width="0.5" stroke-miterlimit="10"/>
<path d="M0.443359 218.7C86.3655 205.701 139.483 152.269 209.014 115.379C287.818 73.6183 374.125 93.5954 462.201 105.054C574.943 119.718 689.226 141.696 803.622 147.381C864.471 150.392 883.582 128.662 909.608 90.1419C930.397 59.3793 958.758 18.2562 1013.53 37.1353C1047.33 48.7886 1078.62 85.98 1098.21 107.764C1142.44 156.909 1178.82 210.04 1221.81 259.806C1253.16 296.129 1335.8 393.199 1387.76 320.87C1411.11 288.355 1395.85 221.994 1462.77 218.718" stroke="#548BCE" stroke-opacity="0.7" stroke-width="0.5" stroke-miterlimit="10"/>
<path d="M0.443359 164.292C81.1512 152.94 138.735 111.073 208.651 81.3197C286.934 48.0245 365.76 62.7948 450.072 72.4646C551.932 84.2596 654.698 101.651 757.714 106.326C814.028 108.877 840.485 91.1488 875.761 60.156C906.434 33.201 942.73 1.48207 993.649 19.9715C1028.18 32.5103 1060.48 62.8479 1084.33 84.5961C1130.06 126.428 1169.46 172.208 1214.21 214.66C1253.7 252.152 1334.07 335.089 1385.22 266.285C1410.16 232.742 1404.49 176.937 1463 164.434" stroke="#548BCE" stroke-opacity="0.7" stroke-width="0.5" stroke-miterlimit="10"/>
<path d="M0.443359 109.942C75.2568 105.231 138.077 78.7186 208.062 60.8844C279.928 42.5544 351.681 49.9218 425.384 56.2089C556.421 67.4195 692.898 96.9424 815.57 49.302C858.463 32.6721 904.643 14.5368 953.861 25.464C1035.16 43.4753 1097.59 106.382 1160.6 146.336C1215.01 180.871 1273.65 212.962 1339.17 176.196C1383.49 151.401 1406.57 121.294 1462.75 110.048" stroke="#548BCE" stroke-opacity="0.7" stroke-width="0.5" stroke-miterlimit="10"/>
<path d="M0.443359 55.588C70.7227 56.1547 138.123 45.3161 207.495 39.1352C271.721 33.4148 337.444 35.7703 401.897 38.3383C521.553 43.0669 638.874 50.1864 757.827 36.5673C809.857 30.5989 862.113 25.3567 914.845 27.7122C979.865 30.6166 1038.85 54.2775 1099.7 70.0396C1225.07 102.502 1337.25 59.4134 1462.64 55.5526" stroke="#548BCE" stroke-opacity="0.7" stroke-width="0.5" stroke-miterlimit="10"/>
<path d="M1393.01 1.11035C1394.17 64.017 1417.06 124.232 1422.96 186.554C1427.27 232.317 1404.01 272.484 1391.9 316.441C1367.6 404.549 1365.69 494.41 1393.08 581.934C1406.02 623.323 1414.16 661.772 1412.15 704.63C1410.26 744.461 1395.57 779.509 1384.94 818.188C1356.08 923.812 1394.01 1036.8 1393.06 1143.51" stroke="#548BCE" stroke-opacity="0.7" stroke-width="0.5" stroke-miterlimit="10"/>
<path d="M1323.43 1.14551C1334.4 79.2121 1382.89 148.813 1402.44 225.233C1411.32 259.998 1407.88 270.589 1381.26 295.489C1363.12 312.42 1346.39 326.482 1331.61 345.662C1297.2 390.31 1269.99 443.83 1265.64 496.411C1261.83 542.068 1288.31 569.856 1323.43 603.027C1355.51 633.311 1390.69 665.473 1380.69 708.225C1371.92 745.683 1333.09 756.734 1302.41 781.829C1256.48 819.499 1273.71 872.718 1282.69 919.614C1296.99 994.21 1318.83 1067.92 1323.5 1143.45" stroke="#548BCE" stroke-opacity="0.7" stroke-width="0.5" stroke-miterlimit="10"/>
<path d="M1253.87 1.2002C1277.04 94.9049 1348.8 174.406 1383.51 265.082C1398.29 303.726 1400.85 317.451 1354.19 331.708C1323.45 341.094 1295.25 358.521 1272.21 376.497C1220.62 416.558 1167.05 476.755 1156.37 534.879C1147.14 584.999 1205.22 605.72 1253.85 625.024C1288.99 638.98 1373.44 668.556 1350.81 711.804C1331.61 748.571 1257.41 736.422 1219.51 743.966C1137.32 760.33 1171.47 826.248 1184.91 876.403C1208.81 965.308 1242.81 1052.81 1253.78 1143.38" stroke="#548BCE" stroke-opacity="0.7" stroke-width="0.5" stroke-miterlimit="10"/>
<path d="M1184.23 1.17969C1213.33 105.812 1301.86 192.574 1348.18 292.477C1369.83 339.126 1361.51 343.323 1307.37 350.407C1270.01 355.224 1233.38 371.872 1204.04 389.883C1142.58 427.801 1073.93 492.868 1062.71 556.359C1052.78 612.465 1130.16 624.898 1184.18 637.383C1215.6 644.645 1336.69 667.349 1304.79 714.883C1280.01 751.791 1178.06 722.198 1140.65 721.401C1040.52 719.311 1082.73 798.971 1098.42 850.685C1127.89 947.896 1171.21 1043.73 1184.16 1143.38" stroke="#548BCE" stroke-opacity="0.7" stroke-width="0.5" stroke-miterlimit="10"/>
<path d="M1114.57 1.26953C1138.76 97.6662 1225.25 171.695 1270 261.698C1289.97 301.776 1288.27 312.314 1238.74 323.33C1203.6 331.14 1170.73 349.895 1143.93 368.615C1086.05 409.189 1016.63 475.159 1004.91 538.278C995.481 589 1059.32 605.577 1108.9 619.745C1143.14 629.645 1236.36 653.643 1211.46 697.44C1191.36 732.772 1110.19 721.543 1073.17 728.344C986.072 744.283 1021.39 808.642 1036.72 862.18C1063.47 955.69 1101.74 1047.78 1114.41 1143.35" stroke="#548BCE" stroke-opacity="0.7" stroke-width="0.5" stroke-miterlimit="10"/>
<path d="M1044.92 1.17969C1063.05 74.3583 1136.26 118.651 1180.76 181.257C1202.71 212.108 1195.2 216.961 1165.07 236.3C1137.67 253.588 1112.84 273.235 1091.07 294.868C1040.47 345.378 983.661 412.34 972.507 477.903C965.819 517.131 987.537 539.729 1022.02 564.187C1110.03 626.633 1053.89 680.136 1004.72 745.469C967.542 794.845 978.99 842.344 991.459 897.281C1010.03 979.261 1037.44 1060.21 1044.89 1143.45" stroke="#548BCE" stroke-opacity="0.7" stroke-width="0.5" stroke-miterlimit="10"/>
<path d="M975.28 1.05566C989.2 55.7802 1047.6 55.9573 1090.13 90.4745C1126.86 120.369 1058.98 177.502 1039.01 208.318C999.311 269.595 954.219 338.134 945.559 407.735C941.727 438.622 938.553 469.083 932.364 499.828C914.545 587.989 928.465 675.673 935.47 764.454C940.004 822.03 941.977 880.137 949.617 937.465C958.685 1006.18 973.965 1074.33 975.303 1143.56" stroke="#548BCE" stroke-opacity="0.7" stroke-width="0.5" stroke-miterlimit="10"/>
<path d="M905.649 1.05566C899.324 51.3349 974.727 16.9948 1002.79 24.6279C1052.28 38.1762 996.989 125.7 984.997 152.62C955.026 219.83 913.742 289.431 905.422 361.157C900.48 403.786 885.789 426.118 849.29 456.527C814.331 485.518 789.915 510.631 796.399 552.959C808.142 629.361 843.395 704.717 867.993 778.852C907.1 896.785 907.123 1021.94 905.694 1143.49" stroke="#548BCE" stroke-opacity="0.7" stroke-width="0.5" stroke-miterlimit="10"/>
<path d="M836.004 1.08984C825.666 52.1484 908.278 13.9475 934.69 19.2782C992.704 30.967 939.043 126.903 926.279 154.956C895.56 222.503 851.579 289.554 839.065 361.245C831.47 404.652 817.595 428.207 783.34 462.334C751.442 494.124 724.713 521.788 730.132 564.451C739.903 641.137 781.118 716.865 807.983 790.327C851.057 908.26 832.513 1022.58 835.981 1143.42" stroke="#548BCE" stroke-opacity="0.7" stroke-width="0.5" stroke-miterlimit="10"/>
<path d="M766.361 1.11035C761.645 54.5775 855.117 31.3771 891.912 44.0222C959.674 67.3465 902.499 147.91 880.939 183.933C842.557 248.185 784.543 313.058 769.444 384.235C760.081 428.263 753.733 469.527 738.408 512.847C723.74 554.342 704.991 598.121 710.251 641.759C718.254 707.995 753.983 772.726 777.447 836.04C798.168 891.916 810.342 943.47 796.83 1001.4C785.676 1049.34 767.857 1094.1 766.361 1143.38" stroke="#548BCE" stroke-opacity="0.7" stroke-width="0.5" stroke-miterlimit="10"/>
<path d="M696.799 1.16699C717.633 61.665 797.094 50.543 856.424 75.4436C936.134 108.916 876.056 178.588 842.277 221.57C795.53 281.024 719.016 344.001 700.358 414.364C686.982 464.785 700.109 527.001 700.925 578.573C701.764 632.429 698.658 688.039 705.096 741.719C711.467 795.009 739.624 845.572 758.962 896.4C776.282 941.951 791.132 989.644 761.977 1034.31C736.745 1072.94 703.781 1097.89 696.799 1143.49" stroke="#548BCE" stroke-opacity="0.7" stroke-width="0.5" stroke-miterlimit="10"/>
<path d="M627.171 1.17969C652.539 66.5126 747.484 68.9389 813.66 100.197C900.534 141.214 841.885 203.324 796.929 250.592C743.675 306.645 653.083 366.984 630.685 437.4C613.047 492.974 645.217 573.308 655.94 629.13C668.114 692.533 676.003 755.546 685.162 819.072C691.397 862.303 712.73 900.752 728.373 942.158C742.791 980.253 759.409 1027.88 719.622 1060.18C681.558 1091.08 638.506 1095.25 627.103 1143.42" stroke="#548BCE" stroke-opacity="0.7" stroke-width="0.5" stroke-miterlimit="10"/>
<path d="M557.576 1.16699C584.305 65.8801 678.524 71.9193 744.428 104.754C830.146 147.418 773.605 206.694 727.992 255.291C675.237 311.485 590.04 370.23 565.601 439.689C545.742 496.132 581.471 579.441 594.03 635.812C608.585 700.986 618.265 765.008 627.583 830.5C633.364 871.021 652.521 907.062 666.871 945.918C680.61 983.109 697.704 1031.42 657.01 1061.83C616.316 1092.24 567.982 1093.12 557.508 1143.53" stroke="#548BCE" stroke-opacity="0.7" stroke-width="0.5" stroke-miterlimit="10"/>
<path d="M487.861 1.16699C507.698 59.6107 575.642 61.3817 630.12 93.5434C695.865 132.506 654.718 191.835 627.422 239.352C594.164 297.193 545.807 355.654 530.21 418.738C516.335 474.826 539.074 544.18 547.78 600.374C557.097 660.589 562.493 720.467 569.385 780.735C574.123 822.265 590.129 860.997 601.872 901.465C614.658 945.44 625.2 988.901 588.995 1027.95C551.226 1068.69 498.448 1089.67 487.793 1143.51" stroke="#548BCE" stroke-opacity="0.7" stroke-width="0.5" stroke-miterlimit="10"/>
<path d="M418.203 1.125C424.551 49.7572 461.278 46.6934 496.531 77.4914C533.371 109.689 516.685 175.057 515.053 215.365C510.518 326.391 509.272 436.548 513.171 547.609C516.617 645.44 520.924 738.259 539.673 834.975C549.603 886.193 554.16 931.779 521.854 979.348C484.243 1034.69 429.606 1079.15 418.248 1143.43" stroke="#548BCE" stroke-opacity="0.7" stroke-width="0.5" stroke-miterlimit="10"/>
<path d="M348.498 1.11035C344.077 32.3689 359.199 39.0102 370.919 63.468C379.806 81.9751 373.459 103.475 378.514 122.815C384.839 147.166 396.515 171.536 407.533 194.754C433.264 248.965 469.424 303.548 482.346 360.946C492.457 405.665 478.877 456.989 473.663 502.043C462.736 596.226 464.822 683.662 476.225 777.65C483.026 834.322 483.434 883.185 454.28 936.864C416.873 1005.76 360.99 1067.74 348.566 1143.38" stroke="#548BCE" stroke-opacity="0.7" stroke-width="0.5" stroke-miterlimit="10"/>
<path d="M278.967 1.125C278.808 67.7862 280.531 128.78 322.631 189.137C358.7 240.833 414.402 293.025 427.801 352.531C437.526 395.638 421.725 445.049 413.042 487.801C394.271 580.213 399.19 666.834 407.533 759.777C412.747 817.902 412.067 866.269 384.386 921.896C347.637 995.447 293.159 1064.29 278.99 1143.43" stroke="#548BCE" stroke-opacity="0.7" stroke-width="0.5" stroke-miterlimit="10"/>
<path d="M209.332 1.08984C209.627 74.0027 206.045 143.976 245.288 211.841C274.76 262.67 318.174 313.427 329.442 369.462C338.124 412.675 324.794 460.652 317.948 503.723C303.393 595.143 306.839 682.472 313.413 774.211C317.426 830.352 317.131 879.179 294.075 933.603C264.422 1003.52 221.665 1069.65 209.377 1143.34" stroke="#548BCE" stroke-opacity="0.7" stroke-width="0.5" stroke-miterlimit="10"/>
<path d="M139.71 1.14551C139.71 83.9938 130.233 171.766 160 251.904C178.136 300.838 204.412 349.116 210.17 400.316C215.044 443.777 207.246 489.062 202.961 532.434C194.142 622.154 196.5 710.439 200.399 800.283C202.666 852.227 204.14 902.241 189.767 953.423C171.97 1016.93 144.856 1078.12 139.71 1143.45" stroke="#548BCE" stroke-opacity="0.7" stroke-width="0.5" stroke-miterlimit="10"/>
<path d="M70.0658 1.2002C70.0658 96.6759 61.791 195.322 75.4841 290.266C88.5543 379.759 93.3729 469.871 89.9027 559.904C86.5701 648.455 87.7944 736.74 89.1773 825.238C90.8776 932.031 68.7736 1037.28 70.0205 1143.58" stroke="#548BCE" stroke-opacity="0.7" stroke-width="0.5" stroke-miterlimit="10"/>
</svg>
